M48
; DRILL file {KiCad 8.0.1} date 2024-07-07T17:21:41-0400
; FORMAT={-:-/ absolute / inch / decimal}
; #@! TF.CreationDate,2024-07-07T17:21:41-04:00
; #@! TF.GenerationSoftware,Kicad,Pcbnew,8.0.1
; #@! TF.FileFunction,Plated,1,2,PTH
FMAT,2
INCH
; #@! TA.AperFunction,Plated,PTH,ViaDrill
T1C0.0118
; #@! TA.AperFunction,Plated,PTH,ComponentDrill
T2C0.0197
; #@! TA.AperFunction,Plated,PTH,ComponentDrill
T3C0.0276
; #@! TA.AperFunction,Plated,PTH,ComponentDrill
T4C0.0295
; #@! TA.AperFunction,Plated,PTH,ComponentDrill
T5C0.0315
; #@! TA.AperFunction,Plated,PTH,ComponentDrill
T6C0.0354
; #@! TA.AperFunction,Plated,PTH,ComponentDrill
T7C0.0390
; #@! TA.AperFunction,Plated,PTH,ComponentDrill
T8C0.0394
; #@! TA.AperFunction,Plated,PTH,ComponentDrill
T9C0.0423
; #@! TA.AperFunction,Plated,PTH,ComponentDrill
T10C0.0433
; #@! TA.AperFunction,Plated,PTH,ComponentDrill
T11C0.0512
; #@! TA.AperFunction,Plated,PTH,ComponentDrill
T12C0.1260
%
G90
G05
T1
X1.815Y-2.689
X1.878Y-2.1575
X2.0138Y-2.7913
X2.0217Y-3.8644
X2.03Y-3.828
X2.1811Y-2.1299
X2.2067Y-3.0935
X2.2717Y-2.1142
X2.3228Y-2.3228
X2.4803Y-2.8937
X2.509Y-2.4594
X2.5591Y-3.5669
X2.5906Y-2.4646
X2.6299Y-3.1142
X2.748Y-3.8583
X2.7638Y-2.5945
X2.7638Y-2.6811
X2.811Y-3.7992
X2.8268Y-3.1343
X2.8468Y-2.8288
X2.8689Y-2.1669
X2.8701Y-3.2087
X2.8898Y-3.0039
X2.9499Y-2.932
X2.9685Y-2.8252
X2.9815Y-1.8114
X3.015Y-1.6894
X3.0157Y-2.815
X3.0276Y-3.7323
X3.0315Y-3.1063
X3.0709Y-2.9568
X3.0827Y-3.874
X3.1106Y-2.7736
X3.1276Y-1.9567
X3.1283Y-3.4134
X3.135Y-2.6803
X3.1378Y-2.8299
X3.1969Y-3.9272
X3.2057Y-2.6053
X3.311Y-2.7008
X3.311Y-2.8929
X3.3278Y-3.8061
X3.3356Y-1.6112
X3.3937Y-3.7874
X3.4094Y-2.3197
X3.4118Y-2.778
X3.4269Y-3.7717
X3.4764Y-3.813
X3.4787Y-2.6535
X3.4913Y-2.9646
X3.5374Y-3.2551
X3.5713Y-2.8929
X3.5748Y-3.8799
X3.5827Y-2.4961
X3.6024Y-3.3031
X3.6535Y-2.0827
X3.6772Y-3.5591
X3.6969Y-2.0079
X3.7008Y-2.6697
X3.7116Y-2.7713
X3.7598Y-3.5354
X3.7835Y-2.3543
X3.8008Y-2.9646
X3.8429Y-2.8929
X3.8504Y-2.3307
X3.9081Y-1.6907
X3.938Y-3.7185
X3.9902Y-2.9646
X4.0043Y-3.8177
X4.0264Y-2.9992
X4.0472Y-2.9213
X4.0492Y-2.4331
X4.0596Y-2.6118
X4.0799Y-1.815
X4.1452Y-2.4331
X4.1693Y-2.6693
X4.2332Y-2.4173
X4.2398Y-2.0142
X4.2559Y-2.6772
X4.3175Y-2.4016
X4.3276Y-3.4073
X4.3425Y-2.9173
X4.3455Y-2.0299
X4.3878Y-2.9803
X4.3886Y-2.5945
X4.4049Y-2.3848
X4.4323Y-2.0819
X4.435Y-2.0457
X4.4764Y-2.9488
X4.485Y-2.3701
X4.512Y-2.6951
X4.5157Y-2.8701
X4.5344Y-3.7343
X4.5719Y-2.0614
X4.5906Y-2.9488
X4.6019Y-2.8223
X4.6102Y-2.7087
X4.622Y-2.8465
X4.6348Y-2.3384
X4.6447Y-3.7343
X4.7047Y-2.5748
X4.7087Y-2.6929
X4.7175Y-3.7343
X4.7376Y-2.9387
X4.7437Y-3.8287
X4.7547Y-2.3071
X4.769Y-2.9367
X4.7756Y-2.0772
X4.7766Y-3.7815
X4.8159Y-3.7343
X4.8343Y-3.4646
X4.8543Y-2.9488
X4.9045Y-2.0929
X4.9045Y-2.815
X4.9085Y-3.7579
X4.9724Y-2.8307
X4.9961Y-2.1087
X5.0071Y-2.8543
X5.0197Y-2.6575
X5.0423Y-3.7185
X5.0591Y-2.6142
X5.0662Y-2.0779
X5.0909Y-2.2717
X5.1057Y-2.1698
X5.1181Y-2.5157
X5.1457Y-2.6535
X5.2352Y-2.3228
X5.253Y-2.9252
X5.2673Y-1.6713
X5.2717Y-2.6325
X5.3071Y-2.6929
X5.3071Y-2.8268
X5.3504Y-3.4685
X5.3567Y-2.3386
X5.3587Y-2.6693
X5.3622Y-2.9488
X5.3823Y-2.6299
X5.4134Y-2.5827
X5.4134Y-2.6496
X5.4646Y-2.6803
X5.4724Y-2.3543
X5.4764Y-2.8622
X5.5118Y-2.8346
X5.5158Y-2.7913
X5.5246Y-2.3386
X5.5827Y-2.3701
X5.5842Y-2.6803
X5.6083Y-1.8622
X5.622Y-3.4094
X5.6417Y-2.8465
X5.6417Y-3.4685
X5.6811Y-2.8614
X5.6978Y-2.3858
X5.7008Y-3.4409
X5.7057Y-3.6959
X5.7352Y-2.3858
X5.811Y-3.876
X5.8159Y-2.4016
X5.8346Y-2.6772
X5.8626Y-2.1154
X5.8929Y-2.6063
X5.9016Y-3.8917
X5.932Y-2.4173
X5.9498Y-2.8614
X5.9742Y-2.0777
X5.9921Y-2.5906
X6.0039Y-2.8543
X6.0499Y-2.4331
X6.0984Y-3.598
X6.1575Y-3.9094
X6.1673Y-2.4488
X6.2323Y-2.8465
X6.2516Y-3.2606
X6.252Y-3.7913
X6.2746Y-2.4646
X6.2953Y-2.8457
X6.3024Y-3.3858
X6.361Y-2.9925
X6.3689Y-2.6634
X6.3868Y-2.4803
X6.4094Y-3.2224
X6.4815Y-2.0142
X6.5378Y-2.6791
X6.5543Y-1.8622
X6.6268Y-2.652
X6.6287Y-3.6065
X6.6297Y-2.0171
X6.6941Y-2.0457
X6.7047Y-2.7008
X6.7268Y-3.2756
X6.7425Y-2.7795
X6.7483Y-2.8162
T2
X3.9579Y-1.3319
X4.5669Y-1.3319
X5.2657Y-1.3319
T3
X2.7098Y-3.1972
X3.0098Y-3.1972
X3.0598Y-1.7488
X3.0598Y-1.8959
X3.3598Y-1.7488
X3.3598Y-1.8959
X3.4011Y-3.1988
X3.4598Y-1.7488
X3.7011Y-3.1988
X3.7598Y-1.7488
X3.84Y-3.1988
X4.14Y-3.1988
X5.433Y-3.3488
X5.433Y-3.6488
T4
X5.8642Y-1.6673
X5.9142Y-1.7173
X5.9642Y-1.6673
T5
X1.7598Y-2.0488
X1.7598Y-2.1472
X1.7598Y-2.2472
X1.7598Y-2.5472
X1.7598Y-2.6472
X1.7598Y-2.7472
X1.7598Y-3.0472
X1.8087Y-3.2807
X1.8087Y-3.5807
X1.8583Y-2.6472
X1.8598Y-2.2472
X1.8598Y-2.5472
X1.8598Y-2.7472
X1.8598Y-3.0472
X1.9598Y-2.2472
X1.9598Y-2.5472
X1.9598Y-2.7472
X1.9598Y-3.0472
X2.0598Y-1.7488
X2.0598Y-2.2472
X2.0598Y-2.5472
X2.0598Y-2.7472
X2.0598Y-3.0472
X2.1087Y-3.2807
X2.1087Y-3.5807
X2.1598Y-1.7488
X2.1598Y-2.2472
X2.1598Y-2.5472
X2.1598Y-2.7472
X2.1598Y-3.0472
X2.2598Y-1.7488
X2.2598Y-2.2472
X2.2598Y-2.5472
X2.2598Y-2.7472
X2.2598Y-3.0472
X2.2614Y-3.1972
X2.3598Y-1.7488
X2.3598Y-2.2472
X2.3598Y-2.5472
X2.3598Y-2.7472
X2.3598Y-3.0472
X2.3598Y-3.1972
X2.3598Y-3.3472
X2.3598Y-3.6472
X2.4598Y-1.7488
X2.4598Y-2.2472
X2.4598Y-2.5472
X2.4598Y-2.7472
X2.4598Y-3.0472
X2.4598Y-3.1972
X2.4598Y-3.3472
X2.4598Y-3.6472
X2.5583Y-3.1972
X2.5598Y-1.7488
X2.5598Y-2.2472
X2.5598Y-2.5472
X2.5598Y-3.3472
X2.5598Y-3.6472
X2.5614Y-2.6472
X2.6598Y-1.7488
X2.6598Y-2.2472
X2.6598Y-2.5472
X2.6598Y-2.6472
X2.6598Y-2.7472
X2.6598Y-3.0472
X2.6598Y-3.3472
X2.6598Y-3.6472
X2.7598Y-1.7488
X2.7598Y-2.7472
X2.7598Y-3.0472
X2.7598Y-3.3472
X2.7598Y-3.6472
X2.8555Y-2.6472
X2.8598Y-1.7488
X2.8598Y-2.2472
X2.8598Y-2.5472
X2.8598Y-2.7472
X2.8598Y-3.0472
X2.8598Y-3.3472
X2.8598Y-3.6472
X2.9539Y-2.6472
X2.9598Y-2.2472
X2.9598Y-2.5472
X2.9598Y-2.7472
X2.9598Y-3.0472
X2.9598Y-3.3472
X2.9598Y-3.6472
X3.0598Y-2.2472
X3.0598Y-2.5472
X3.0598Y-2.7472
X3.0598Y-3.0472
X3.1598Y-2.2472
X3.1598Y-2.5472
X3.1598Y-2.7472
X3.1598Y-3.0472
X3.1598Y-3.1988
X3.1598Y-3.3488
X3.1598Y-3.6488
X3.2583Y-3.1988
X3.2598Y-2.2472
X3.2598Y-2.5472
X3.2598Y-2.7472
X3.2598Y-3.0472
X3.2598Y-3.3488
X3.2598Y-3.6488
X3.3598Y-2.2472
X3.3598Y-2.5472
X3.3598Y-2.7472
X3.3598Y-3.0472
X3.3598Y-3.3488
X3.3598Y-3.6488
X3.4598Y-2.2472
X3.4598Y-2.5472
X3.4598Y-2.7472
X3.4598Y-3.0472
X3.4598Y-3.3488
X3.4598Y-3.6488
X3.5551Y-1.8959
X3.5598Y-2.2472
X3.5598Y-2.5472
X3.5598Y-2.7472
X3.5598Y-3.0472
X3.5598Y-3.3488
X3.5598Y-3.6488
X3.6535Y-1.8959
X3.6598Y-3.3488
X3.6598Y-3.6488
X3.7598Y-1.9472
X3.7598Y-2.5472
X3.7598Y-2.6472
X3.7598Y-2.7472
X3.7598Y-3.0472
X3.7598Y-3.3488
X3.7598Y-3.6488
X3.8583Y-2.6472
X3.8598Y-1.9472
X3.8598Y-2.5472
X3.8598Y-2.7472
X3.8598Y-3.0472
X3.8598Y-3.3488
X3.8598Y-3.6488
X3.9598Y-1.9472
X3.9598Y-2.5472
X3.9598Y-2.7472
X3.9598Y-3.0472
X3.9598Y-3.3488
X3.9598Y-3.6488
X4.0598Y-1.4856
X4.0598Y-1.7497
X4.0598Y-1.9472
X4.0598Y-2.5472
X4.0598Y-2.7472
X4.0598Y-3.0472
X4.0598Y-3.3488
X4.0598Y-3.6488
X4.1583Y-1.4856
X4.1583Y-1.7497
X4.1598Y-1.9472
X4.1598Y-2.5472
X4.1598Y-2.7472
X4.1598Y-3.0472
X4.1598Y-3.3488
X4.1598Y-3.6488
X4.2598Y-1.9472
X4.2598Y-2.5472
X4.2598Y-2.7472
X4.2598Y-3.0472
X4.2598Y-3.3488
X4.2598Y-3.6488
X4.3085Y-3.1988
X4.3598Y-1.9472
X4.3598Y-2.5472
X4.3598Y-2.7472
X4.3598Y-3.0472
X4.3842Y-3.4492
X4.3842Y-3.5476
X4.4085Y-3.1988
X4.4598Y-1.9472
X4.4598Y-2.5472
X4.4598Y-2.7472
X4.4598Y-3.0472
X4.5085Y-3.1988
X4.5085Y-3.3488
X4.5085Y-3.6488
X4.5598Y-1.9472
X4.5598Y-2.5472
X4.5598Y-2.7472
X4.5598Y-3.0472
X4.6085Y-3.1988
X4.6085Y-3.3488
X4.6085Y-3.6488
X4.6598Y-1.9472
X4.6598Y-2.5472
X4.6598Y-2.7472
X4.6598Y-3.0472
X4.7085Y-3.1988
X4.7085Y-3.3488
X4.7085Y-3.6488
X4.7598Y-1.9472
X4.7598Y-2.5472
X4.8085Y-3.1988
X4.8085Y-3.3488
X4.8085Y-3.6488
X4.8598Y-1.9472
X4.8598Y-2.5472
X4.8598Y-2.6472
X4.8598Y-2.7472
X4.8598Y-3.0472
X4.9085Y-3.1988
X4.9085Y-3.3488
X4.9085Y-3.6488
X4.9583Y-2.6472
X4.9598Y-1.9472
X4.9598Y-2.5472
X4.9598Y-2.7472
X4.9598Y-3.0472
X5.0085Y-3.1988
X5.0085Y-3.3488
X5.0085Y-3.6488
X5.0598Y-1.4856
X5.0598Y-1.7497
X5.0598Y-1.9472
X5.0598Y-2.5472
X5.0598Y-2.7472
X5.0598Y-3.0472
X5.1085Y-3.1988
X5.1085Y-3.3488
X5.1085Y-3.6488
X5.1583Y-1.4856
X5.1583Y-1.7497
X5.1598Y-2.7472
X5.1598Y-3.0472
X5.2085Y-3.3488
X5.2085Y-3.6488
X5.2098Y-1.9472
X5.2098Y-2.0457
X5.2598Y-2.7472
X5.2598Y-3.0472
X5.3085Y-3.1988
X5.3085Y-3.3488
X5.3085Y-3.6488
X5.3598Y-1.9472
X5.3598Y-2.5472
X5.3598Y-2.7472
X5.3598Y-3.0472
X5.4069Y-3.1988
X5.4598Y-1.9472
X5.4598Y-2.5472
X5.4598Y-2.7472
X5.4598Y-3.0472
X5.5575Y-3.1988
X5.5575Y-3.3488
X5.5575Y-3.6488
X5.5598Y-1.9472
X5.5598Y-2.5472
X5.5598Y-2.7472
X5.5598Y-3.0472
X5.6559Y-3.1988
X5.6575Y-3.3488
X5.6575Y-3.6488
X5.6598Y-1.9472
X5.6598Y-2.5472
X5.6598Y-2.7472
X5.6598Y-3.0472
X5.6827Y-1.6476
X5.6827Y-1.7461
X5.7575Y-3.3488
X5.7575Y-3.6488
X5.7598Y-1.9472
X5.7598Y-2.5472
X5.7598Y-2.7472
X5.7598Y-3.0472
X5.8575Y-3.3488
X5.8575Y-3.6488
X5.8598Y-1.9472
X5.8598Y-2.5472
X5.9575Y-3.3488
X5.9575Y-3.6488
X5.9598Y-1.9472
X5.9598Y-2.5472
X5.9598Y-2.7472
X5.9598Y-3.0472
X6.0575Y-3.3488
X6.0575Y-3.6488
X6.0598Y-1.9472
X6.0598Y-2.5472
X6.0598Y-2.7472
X6.0598Y-3.0472
X6.1575Y-3.3488
X6.1575Y-3.6488
X6.1598Y-1.9472
X6.1598Y-2.5472
X6.1598Y-2.7472
X6.1598Y-3.0472
X6.2575Y-3.3488
X6.2575Y-3.6488
X6.2598Y-1.9472
X6.2598Y-2.5472
X6.2598Y-2.7472
X6.2598Y-3.0472
X6.3575Y-3.3488
X6.3575Y-3.6488
X6.3598Y-1.9472
X6.3598Y-2.5472
X6.3598Y-2.7472
X6.3598Y-3.0472
X6.3598Y-3.1988
X6.4575Y-3.3488
X6.4575Y-3.6488
X6.4583Y-3.1988
X6.4598Y-1.9472
X6.4598Y-2.5472
X6.4598Y-2.7472
X6.4598Y-3.0472
X6.5575Y-3.3488
X6.5575Y-3.6488
X6.5598Y-1.9472
X6.5598Y-2.5472
X6.5598Y-2.7472
X6.5598Y-3.0472
X6.6575Y-3.3488
X6.6575Y-3.6488
X6.6598Y-1.9472
X6.6598Y-2.5472
X6.6598Y-2.7472
X6.6598Y-3.0472
T6
X1.7598Y-1.7488
X1.8598Y-1.7488
X1.9598Y-1.4856
X2.0598Y-1.4856
X2.1598Y-1.4856
X2.2598Y-1.4856
X2.3598Y-1.4856
X2.4598Y-1.4856
X2.5598Y-1.4856
X2.6598Y-1.4856
X2.7598Y-1.4856
X2.8598Y-1.4856
X2.9598Y-1.4856
X3.0598Y-1.4856
X3.1598Y-1.4856
X3.2598Y-1.4856
X3.3598Y-1.4856
X3.4598Y-1.4856
X3.5598Y-1.4856
X3.6598Y-1.4856
X3.7598Y-1.4856
X3.8598Y-1.4856
T7
X5.7417Y-1.3741
X5.9189Y-1.3741
T8
X1.9598Y-1.9488
X1.9598Y-2.0488
X2.0598Y-1.9488
X2.0598Y-2.0488
X2.1598Y-1.9488
X2.1598Y-2.0488
X2.2598Y-1.9488
X2.2598Y-2.0488
X2.3598Y-1.9488
X2.3598Y-2.0488
X2.4598Y-1.9488
X2.4598Y-2.0488
X2.5598Y-1.9488
X2.5598Y-2.0488
X2.6598Y-1.9488
X2.6598Y-2.0488
X2.7598Y-1.9488
X2.7598Y-2.0488
X2.8598Y-1.9488
X2.8598Y-2.0488
X3.0598Y-2.0488
X3.1598Y-2.0488
X3.2598Y-2.0488
X3.3598Y-2.0488
X3.4598Y-2.0488
X3.5598Y-2.0488
T9
X4.6752Y-1.4567
X4.6752Y-1.5567
X4.6752Y-1.6567
X4.6752Y-1.7567
T10
X4.4598Y-1.5177
X4.4598Y-1.6177
X4.4598Y-1.7177
X5.4587Y-1.5177
X5.4587Y-1.6177
X5.4587Y-1.7177
T11
X5.6925Y-1.4721
X5.9685Y-1.4721
T12
X1.7402Y-1.4114
X1.7402Y-3.8189
X6.6667Y-1.4114
X6.6667Y-3.8189
T8
G00X6.1732Y-1.5748
M15
G01X6.1732Y-1.6535
M16
G05
G00X6.3976Y-1.4961
M15
G01X6.3189Y-1.4961
M16
G05
G00X6.3976Y-1.7323
M15
G01X6.3189Y-1.7323
M16
G05
M30
