%TF.GenerationSoftware,KiCad,Pcbnew,8.0.1*%
%TF.CreationDate,2024-07-07T17:16:33-04:00*%
%TF.ProjectId,8k8,386b382e-6b69-4636-9164-5f7063625858,rev?*%
%TF.SameCoordinates,Original*%
%TF.FileFunction,Soldermask,Bot*%
%TF.FilePolarity,Negative*%
%FSLAX46Y46*%
G04 Gerber Fmt 4.6, Leading zero omitted, Abs format (unit mm)*
G04 Created by KiCad (PCBNEW 8.0.1) date 2024-07-07 17:16:33*
%MOMM*%
%LPD*%
G01*
G04 APERTURE LIST*
G04 Aperture macros list*
%AMRoundRect*
0 Rectangle with rounded corners*
0 $1 Rounding radius*
0 $2 $3 $4 $5 $6 $7 $8 $9 X,Y pos of 4 corners*
0 Add a 4 corners polygon primitive as box body*
4,1,4,$2,$3,$4,$5,$6,$7,$8,$9,$2,$3,0*
0 Add four circle primitives for the rounded corners*
1,1,$1+$1,$2,$3*
1,1,$1+$1,$4,$5*
1,1,$1+$1,$6,$7*
1,1,$1+$1,$8,$9*
0 Add four rect primitives between the rounded corners*
20,1,$1+$1,$2,$3,$4,$5,0*
20,1,$1+$1,$4,$5,$6,$7,0*
20,1,$1+$1,$6,$7,$8,$9,0*
20,1,$1+$1,$8,$9,$2,$3,0*%
G04 Aperture macros list end*
%ADD10R,1.600000X1.600000*%
%ADD11O,1.600000X1.600000*%
%ADD12C,1.600000*%
%ADD13R,1.000000X1.000000*%
%ADD14O,1.700000X1.700000*%
%ADD15R,1.700000X1.700000*%
%ADD16C,5.600000*%
%ADD17C,1.400000*%
%ADD18O,1.400000X1.400000*%
%ADD19R,1.100000X1.800000*%
%ADD20RoundRect,0.275000X0.275000X0.625000X-0.275000X0.625000X-0.275000X-0.625000X0.275000X-0.625000X0*%
%ADD21R,1.800000X1.800000*%
%ADD22C,1.800000*%
%ADD23R,3.500000X3.500000*%
%ADD24RoundRect,0.750000X-1.000000X0.750000X-1.000000X-0.750000X1.000000X-0.750000X1.000000X0.750000X0*%
%ADD25RoundRect,0.875000X-0.875000X0.875000X-0.875000X-0.875000X0.875000X-0.875000X0.875000X0.875000X0*%
%ADD26C,2.100000*%
%ADD27C,1.750000*%
%ADD28R,2.000000X1.905000*%
%ADD29O,2.000000X1.905000*%
%ADD30R,2.250000X1.750000*%
%ADD31O,2.250000X1.750000*%
G04 APERTURE END LIST*
D10*
%TO.C,U5*%
X123440000Y-77400000D03*
D11*
X125980000Y-77400000D03*
X128520000Y-77400000D03*
X131060000Y-77400000D03*
X133600000Y-77400000D03*
X136140000Y-77400000D03*
X138680000Y-77400000D03*
X141220000Y-77400000D03*
X143760000Y-77400000D03*
X146300000Y-77400000D03*
X146300000Y-69780000D03*
X143760000Y-69780000D03*
X141220000Y-69780000D03*
X138680000Y-69780000D03*
X136140000Y-69780000D03*
X133600000Y-69780000D03*
X131060000Y-69780000D03*
X128520000Y-69780000D03*
X125980000Y-69780000D03*
X123440000Y-69780000D03*
%TD*%
D10*
%TO.C,U3*%
X80260000Y-92680000D03*
D11*
X82800000Y-92680000D03*
X85340000Y-92680000D03*
X87880000Y-92680000D03*
X90420000Y-92680000D03*
X92960000Y-92680000D03*
X95500000Y-92680000D03*
X98040000Y-92680000D03*
X100580000Y-92680000D03*
X103120000Y-92680000D03*
X105660000Y-92680000D03*
X108200000Y-92680000D03*
X108200000Y-85060000D03*
X105660000Y-85060000D03*
X103120000Y-85060000D03*
X100580000Y-85060000D03*
X98040000Y-85060000D03*
X95500000Y-85060000D03*
X92960000Y-85060000D03*
X90420000Y-85060000D03*
X87880000Y-85060000D03*
X85340000Y-85060000D03*
X82800000Y-85060000D03*
X80260000Y-85060000D03*
%TD*%
D10*
%TO.C,U6*%
X67560000Y-77400000D03*
D11*
X70100000Y-77400000D03*
X72640000Y-77400000D03*
X75180000Y-77400000D03*
X77720000Y-77400000D03*
X80260000Y-77400000D03*
X82800000Y-77400000D03*
X85340000Y-77400000D03*
X87880000Y-77400000D03*
X90420000Y-77400000D03*
X90420000Y-69780000D03*
X87880000Y-69780000D03*
X85340000Y-69780000D03*
X82800000Y-69780000D03*
X80260000Y-69780000D03*
X77720000Y-69780000D03*
X75180000Y-69780000D03*
X72640000Y-69780000D03*
X70100000Y-69780000D03*
X67560000Y-69780000D03*
%TD*%
D10*
%TO.C,U8*%
X95500000Y-77400000D03*
D11*
X98040000Y-77400000D03*
X100580000Y-77400000D03*
X103120000Y-77400000D03*
X105660000Y-77400000D03*
X108200000Y-77400000D03*
X110740000Y-77400000D03*
X113280000Y-77400000D03*
X115820000Y-77400000D03*
X118360000Y-77400000D03*
X118360000Y-69780000D03*
X115820000Y-69780000D03*
X113280000Y-69780000D03*
X110740000Y-69780000D03*
X108200000Y-69780000D03*
X105660000Y-69780000D03*
X103120000Y-69780000D03*
X100580000Y-69780000D03*
X98040000Y-69780000D03*
X95500000Y-69780000D03*
%TD*%
D12*
%TO.C,C9*%
X90300000Y-48155000D03*
X92800000Y-48155000D03*
%TD*%
D10*
%TO.C,U7*%
X141160000Y-92680000D03*
D11*
X143700000Y-92680000D03*
X146240000Y-92680000D03*
X148780000Y-92680000D03*
X151320000Y-92680000D03*
X153860000Y-92680000D03*
X156400000Y-92680000D03*
X158940000Y-92680000D03*
X161480000Y-92680000D03*
X164020000Y-92680000D03*
X166560000Y-92680000D03*
X169100000Y-92680000D03*
X169100000Y-85060000D03*
X166560000Y-85060000D03*
X164020000Y-85060000D03*
X161480000Y-85060000D03*
X158940000Y-85060000D03*
X156400000Y-85060000D03*
X153860000Y-85060000D03*
X151320000Y-85060000D03*
X148780000Y-85060000D03*
X146240000Y-85060000D03*
X143700000Y-85060000D03*
X141160000Y-85060000D03*
%TD*%
D13*
%TO.C,TP1*%
X100530000Y-33830000D03*
%TD*%
D12*
%TO.C,C6*%
X143660000Y-81250000D03*
X141160000Y-81250000D03*
%TD*%
D14*
%TO.C,J1*%
X72640000Y-49500000D03*
X72640000Y-52040000D03*
X70100000Y-49500000D03*
X70100000Y-52040000D03*
X67560000Y-49500000D03*
X67560000Y-52040000D03*
X65020000Y-49500000D03*
X65020000Y-52040000D03*
X62480000Y-49500000D03*
X62480000Y-52040000D03*
X59940000Y-49500000D03*
X59940000Y-52040000D03*
X57400000Y-49500000D03*
X57400000Y-52040000D03*
X54860000Y-49500000D03*
X54860000Y-52040000D03*
X52320000Y-49500000D03*
X52320000Y-52040000D03*
X49780000Y-49500000D03*
D15*
X49780000Y-52040000D03*
%TD*%
D16*
%TO.C,H3*%
X44200000Y-97000000D03*
%TD*%
D12*
%TO.C,C18*%
X44700000Y-52040000D03*
X44700000Y-54540000D03*
%TD*%
D17*
%TO.C,R1*%
X137997500Y-85060000D03*
D18*
X137997500Y-92680000D03*
%TD*%
D12*
%TO.C,C20*%
X137335000Y-81250000D03*
X134835000Y-81250000D03*
%TD*%
D19*
%TO.C,U4*%
X151490000Y-41950000D03*
D20*
X150220000Y-44020000D03*
X148950000Y-41950000D03*
%TD*%
D17*
%TO.C,R2*%
X68830000Y-81210000D03*
D18*
X76450000Y-81210000D03*
%TD*%
D17*
%TO.C,R15*%
X95500000Y-44420000D03*
D18*
X87880000Y-44420000D03*
%TD*%
D21*
%TO.C,D6*%
X54860000Y-37735000D03*
D22*
X57400000Y-37735000D03*
%TD*%
D17*
%TO.C,R5*%
X77720000Y-48155000D03*
D18*
X85340000Y-48155000D03*
%TD*%
D12*
%TO.C,C5*%
X64980000Y-81210000D03*
X62480000Y-81210000D03*
%TD*%
D10*
%TO.C,U11*%
X72640000Y-64700000D03*
D11*
X75180000Y-64700000D03*
X77720000Y-64700000D03*
X80260000Y-64700000D03*
X82800000Y-64700000D03*
X85340000Y-64700000D03*
X87880000Y-64700000D03*
X90420000Y-64700000D03*
X90420000Y-57080000D03*
X87880000Y-57080000D03*
X85340000Y-57080000D03*
X82800000Y-57080000D03*
X80260000Y-57080000D03*
X77720000Y-57080000D03*
X75180000Y-57080000D03*
X72640000Y-57080000D03*
%TD*%
D10*
%TO.C,U10*%
X136140000Y-64700000D03*
D11*
X138680000Y-64700000D03*
X141220000Y-64700000D03*
X143760000Y-64700000D03*
X146300000Y-64700000D03*
X148840000Y-64700000D03*
X151380000Y-64700000D03*
X153920000Y-64700000D03*
X156460000Y-64700000D03*
X159000000Y-64700000D03*
X161540000Y-64700000D03*
X164080000Y-64700000D03*
X166620000Y-64700000D03*
X169160000Y-64700000D03*
X169160000Y-49460000D03*
X166620000Y-49460000D03*
X164080000Y-49460000D03*
X161540000Y-49460000D03*
X159000000Y-49460000D03*
X156460000Y-49460000D03*
X153920000Y-49460000D03*
X151380000Y-49460000D03*
X148840000Y-49460000D03*
X146300000Y-49460000D03*
X143760000Y-49460000D03*
X141220000Y-49460000D03*
X138680000Y-49460000D03*
X136140000Y-49460000D03*
%TD*%
D23*
%TO.C,J3*%
X161500000Y-44000000D03*
D24*
X161500000Y-38000000D03*
D25*
X156800000Y-41000000D03*
%TD*%
D10*
%TO.C,U1*%
X134835000Y-85060000D03*
D11*
X132295000Y-85060000D03*
X129755000Y-85060000D03*
X127215000Y-85060000D03*
X124675000Y-85060000D03*
X122135000Y-85060000D03*
X119595000Y-85060000D03*
X117055000Y-85060000D03*
X114515000Y-85060000D03*
X114515000Y-92680000D03*
X117055000Y-92680000D03*
X119595000Y-92680000D03*
X122135000Y-92680000D03*
X124675000Y-92680000D03*
X127215000Y-92680000D03*
X129755000Y-92680000D03*
X132295000Y-92680000D03*
X134835000Y-92680000D03*
%TD*%
%TO.C,U9*%
X95500000Y-49460000D03*
X98040000Y-49460000D03*
X100580000Y-49460000D03*
X103120000Y-49460000D03*
X105660000Y-49460000D03*
X108200000Y-49460000D03*
X110740000Y-49460000D03*
X113280000Y-49460000D03*
X115820000Y-49460000D03*
X118360000Y-49460000D03*
X120900000Y-49460000D03*
X123440000Y-49460000D03*
X125980000Y-49460000D03*
X128520000Y-49460000D03*
X128520000Y-64700000D03*
X125980000Y-64700000D03*
X123440000Y-64700000D03*
X120900000Y-64700000D03*
X118360000Y-64700000D03*
X115820000Y-64700000D03*
X113280000Y-64700000D03*
X110740000Y-64700000D03*
X108200000Y-64700000D03*
X105660000Y-64700000D03*
X103120000Y-64700000D03*
X100580000Y-64700000D03*
X98040000Y-64700000D03*
D10*
X95500000Y-64700000D03*
%TD*%
D17*
%TO.C,R3*%
X86388333Y-81250000D03*
D18*
X94008333Y-81250000D03*
%TD*%
D13*
%TO.C,TP3*%
X133750000Y-33830000D03*
%TD*%
D26*
%TO.C,SW1*%
X144590000Y-37392500D03*
X151600000Y-37392500D03*
D27*
X145840000Y-34902500D03*
X150340000Y-34902500D03*
%TD*%
D21*
%TO.C,D4*%
X95500000Y-37735000D03*
D22*
X98040000Y-37735000D03*
%TD*%
D10*
%TO.C,RN2*%
X52320000Y-44420000D03*
D11*
X54860000Y-44420000D03*
X57400000Y-44420000D03*
X59940000Y-44420000D03*
X62480000Y-44420000D03*
X65020000Y-44420000D03*
X67560000Y-44420000D03*
X70100000Y-44420000D03*
X72640000Y-44420000D03*
%TD*%
%TO.C,U2*%
X59940000Y-85020000D03*
X62480000Y-85020000D03*
X65020000Y-85020000D03*
X67560000Y-85020000D03*
X70100000Y-85020000D03*
X72640000Y-85020000D03*
X75180000Y-85020000D03*
X75180000Y-92640000D03*
X72640000Y-92640000D03*
X70100000Y-92640000D03*
X67560000Y-92640000D03*
X65020000Y-92640000D03*
X62480000Y-92640000D03*
D10*
X59940000Y-92640000D03*
%TD*%
D21*
%TO.C,D9*%
X70100000Y-37735000D03*
D22*
X72640000Y-37735000D03*
%TD*%
D12*
%TO.C,C1*%
X57440000Y-81210000D03*
X59940000Y-81210000D03*
%TD*%
D28*
%TO.C,U17*%
X113280000Y-43628750D03*
D29*
X113280000Y-41088750D03*
X113280000Y-38548750D03*
%TD*%
D21*
%TO.C,D8*%
X65020000Y-37735000D03*
D22*
X67560000Y-37735000D03*
%TD*%
D17*
%TO.C,R14*%
X85340000Y-44420000D03*
D18*
X77720000Y-44420000D03*
%TD*%
D16*
%TO.C,H2*%
X169335000Y-35850000D03*
%TD*%
D21*
%TO.C,D10*%
X75180000Y-37735000D03*
D22*
X77720000Y-37735000D03*
%TD*%
D16*
%TO.C,H4*%
X169335000Y-97000000D03*
%TD*%
D10*
%TO.C,U12*%
X44700000Y-77400000D03*
D11*
X47240000Y-77400000D03*
X49780000Y-77400000D03*
X52320000Y-77400000D03*
X54860000Y-77400000D03*
X57400000Y-77400000D03*
X59940000Y-77400000D03*
X62480000Y-77400000D03*
X62480000Y-69780000D03*
X59940000Y-69780000D03*
X57400000Y-69780000D03*
X54860000Y-69780000D03*
X52320000Y-69780000D03*
X49780000Y-69780000D03*
X47240000Y-69780000D03*
X44700000Y-69780000D03*
%TD*%
D15*
%TO.C,J2*%
X77720000Y-52040000D03*
D14*
X80260000Y-52040000D03*
X82800000Y-52040000D03*
X85340000Y-52040000D03*
X87880000Y-52040000D03*
X90420000Y-52040000D03*
%TD*%
D21*
%TO.C,D1*%
X44700000Y-44420000D03*
D22*
X47240000Y-44420000D03*
%TD*%
D21*
%TO.C,D11*%
X80260000Y-37735000D03*
D22*
X82800000Y-37735000D03*
%TD*%
D12*
%TO.C,C11*%
X75030000Y-67240000D03*
X72530000Y-67240000D03*
%TD*%
%TO.C,C14*%
X47200000Y-67240000D03*
X44700000Y-67240000D03*
%TD*%
D21*
%TO.C,D5*%
X49780000Y-37735000D03*
D22*
X52320000Y-37735000D03*
%TD*%
D12*
%TO.C,C2*%
X144340000Y-44350000D03*
X144340000Y-41850000D03*
%TD*%
%TO.C,C7*%
X82760000Y-81250000D03*
X80260000Y-81250000D03*
%TD*%
%TO.C,C8*%
X98000000Y-67240000D03*
X95500000Y-67240000D03*
%TD*%
%TO.C,C13*%
X164040000Y-81250000D03*
X161540000Y-81250000D03*
%TD*%
D10*
%TO.C,RN1*%
X109435000Y-81250000D03*
D11*
X111975000Y-81250000D03*
X114515000Y-81250000D03*
X117055000Y-81250000D03*
X119595000Y-81250000D03*
X122135000Y-81250000D03*
X124675000Y-81250000D03*
X127215000Y-81250000D03*
X129755000Y-81250000D03*
%TD*%
D30*
%TO.C,PS1*%
X118750000Y-37000000D03*
D31*
X118750000Y-39540000D03*
X118750000Y-42080000D03*
X118750000Y-44620000D03*
%TD*%
D21*
%TO.C,D12*%
X85340000Y-37735000D03*
D22*
X87880000Y-37735000D03*
%TD*%
D12*
%TO.C,C3*%
X65060000Y-67240000D03*
X67560000Y-67240000D03*
%TD*%
D10*
%TO.C,C26*%
X103120000Y-37735000D03*
D12*
X105620000Y-37735000D03*
%TD*%
%TO.C,C10*%
X132330000Y-51960000D03*
X132330000Y-49460000D03*
%TD*%
D10*
%TO.C,C24*%
X131020000Y-37735000D03*
D12*
X128520000Y-37735000D03*
%TD*%
D10*
%TO.C,X1*%
X45940000Y-83330000D03*
D12*
X45940000Y-90950000D03*
X53560000Y-90950000D03*
X53560000Y-83330000D03*
%TD*%
D28*
%TO.C,U16*%
X138650000Y-43628750D03*
D29*
X138650000Y-41088750D03*
X138650000Y-38548750D03*
%TD*%
D12*
%TO.C,C19*%
X111357500Y-87610000D03*
X111357500Y-90110000D03*
%TD*%
D17*
%TO.C,R4*%
X105156666Y-81250000D03*
D18*
X97536666Y-81250000D03*
%TD*%
D16*
%TO.C,H1*%
X44200000Y-35850000D03*
%TD*%
D12*
%TO.C,C4*%
X125940000Y-67240000D03*
X123440000Y-67240000D03*
%TD*%
D10*
%TO.C,U13*%
X151380000Y-77400000D03*
D11*
X153920000Y-77400000D03*
X156460000Y-77400000D03*
X159000000Y-77400000D03*
X161540000Y-77400000D03*
X164080000Y-77400000D03*
X166620000Y-77400000D03*
X169160000Y-77400000D03*
X169160000Y-69780000D03*
X166620000Y-69780000D03*
X164080000Y-69780000D03*
X161540000Y-69780000D03*
X159000000Y-69780000D03*
X156460000Y-69780000D03*
X153920000Y-69780000D03*
X151380000Y-69780000D03*
%TD*%
D10*
%TO.C,C25*%
X103120000Y-44442500D03*
D12*
X105620000Y-44442500D03*
%TD*%
D21*
%TO.C,D3*%
X90420000Y-37735000D03*
D22*
X92960000Y-37735000D03*
%TD*%
D13*
%TO.C,TP2*%
X116000000Y-33830000D03*
%TD*%
D10*
%TO.C,C23*%
X131020000Y-44442500D03*
D12*
X128520000Y-44442500D03*
%TD*%
D10*
%TO.C,U15*%
X44700000Y-64700000D03*
D11*
X47240000Y-64700000D03*
X49780000Y-64700000D03*
X52320000Y-64700000D03*
X54860000Y-64700000D03*
X57400000Y-64700000D03*
X59940000Y-64700000D03*
X62480000Y-64700000D03*
X65020000Y-64700000D03*
X67560000Y-64700000D03*
X67560000Y-57080000D03*
X65020000Y-57080000D03*
X62480000Y-57080000D03*
X59940000Y-57080000D03*
X57400000Y-57080000D03*
X54860000Y-57080000D03*
X52320000Y-57080000D03*
X49780000Y-57080000D03*
X47240000Y-57080000D03*
X44700000Y-57080000D03*
%TD*%
D21*
%TO.C,D7*%
X59940000Y-37735000D03*
D22*
X62480000Y-37735000D03*
%TD*%
M02*
